<svg width="36" height="36" viewBox="0 0 36 36" fill="none" xmlns="http://www.w3.org/2000/svg">
<rect width="36" height="36" rx="6" fill="#FAFAFA"/>
<rect x="0.3" y="0.3" width="35.4" height="35.4" rx="5.7" stroke="#DCD5D5" stroke-opacity="0.5" stroke-width="0.6"/>
<path opacity="0.4" d="M28.1707 12.5887L18.0007 18.4725L7.83069 12.5887C8.28069 11.7562 8.93319 11.025 9.66444 10.62L15.6719 7.29C16.9544 6.57 19.0469 6.57 20.3294 7.29L26.3369 10.62C27.0682 11.025 27.7207 11.7562 28.1707 12.5887Z" fill="#716EFF"/>
<path opacity="0.6" d="M18.0007 18.4726V29.2501C17.157 29.2501 16.3132 29.0701 15.672 28.7101L9.66445 25.3801C8.3032 24.6264 7.18945 22.7364 7.18945 21.1839V14.8164C7.18945 14.0964 7.43695 13.3089 7.8307 12.5889L18.0007 18.4726Z" fill="#5157D0"/>
<path d="M28.812 14.8164V21.1839C28.812 22.7364 27.6982 24.6264 26.337 25.3801L20.3295 28.7101C19.6882 29.0701 18.8445 29.2501 18.0007 29.2501V18.4726L28.1707 12.5889C28.5645 13.3089 28.812 14.0964 28.812 14.8164Z" fill="#222564"/>
</svg>
